<svg width="2067" height="468" viewBox="0 0 2067 468" fill="none" xmlns="http://www.w3.org/2000/svg">
<mask id="mask0_14_138" style="mask-type:luminance" maskUnits="userSpaceOnUse" x="0" y="59" width="333" height="332">
<path d="M0 59H332.933V390.995H0V59Z" fill="white"/>
</mask>
<g mask="url(#mask0_14_138)">
<path d="M319.824 161.166C311.436 141.24 299.43 123.355 284.146 107.998C268.861 92.6403 251.055 80.5771 231.229 72.1496C210.69 63.4235 188.884 59 166.41 59H0V320.255H72.9279V393.529H166.41C188.884 393.529 210.69 389.135 231.229 380.406C251.061 371.979 268.861 359.937 284.146 344.575C299.43 329.217 311.436 311.332 319.824 291.411C328.509 270.775 332.917 248.873 332.917 226.293C332.917 203.713 328.509 181.802 319.824 161.166ZM166.41 360.892H105.405V320.246H166.41C179.027 320.246 191.274 317.754 202.809 312.849C213.948 308.113 223.944 301.345 232.524 292.721C241.107 284.1 247.844 274.035 252.559 262.851C257.438 251.256 259.914 238.767 259.914 226.266H227.41C227.41 260.267 173.648 287.623 166.41 287.623C159.172 287.623 105.405 287.623 105.405 287.623V131.691L88.8222 120.845L72.9279 131.691V287.623H32.4749V91.6293H166.41C240.302 91.6293 300.415 152.021 300.415 226.258C300.415 300.501 240.302 360.892 166.41 360.892Z" fill="#004DFF"/>
</g>
<path d="M168.478 190.629H275.534L269.142 277.899L168.478 338.724V190.629Z" fill="white"/>
<rect width="203.873" height="30.1871" rx="15.0936" transform="matrix(0.999995 -0.003097 0.00313291 0.999995 6.45996 286.279)" fill="#004DFF"/>
<rect width="203.071" height="31.9785" rx="15.9893" transform="matrix(0.0017594 0.999998 -0.999998 0.00173924 32.0762 65.0117)" fill="#004DFF"/>
<rect width="92.5208" height="34.5551" rx="17.2775" transform="matrix(-0.999975 0.00709641 -0.00717868 -0.999974 214.213 319.814)" fill="#004DFF"/>
<rect width="273.535" height="34.1106" rx="17.0553" transform="matrix(-0.00382001 0.999993 -0.999993 -0.00377623 107.192 110.658)" fill="#004DFF"/>
<path d="M104.874 247.538L104.61 391.022L72.245 390.963L72.5094 247.479L104.874 247.538Z" fill="#004DFF"/>
<path d="M461.888 371H397.435L397.825 350.492H461.888C482.33 350.492 499.909 345.935 514.622 336.82C529.466 327.576 540.924 314.815 548.997 298.539C557.07 282.263 561.106 263.383 561.106 241.898V215.336C561.106 198.93 558.763 184.086 554.075 170.805C549.518 157.523 542.942 146.195 534.349 136.82C525.755 127.315 515.468 120.023 503.489 114.945C491.64 109.867 478.359 107.328 463.646 107.328H396.263V86.625H463.646C481.354 86.625 497.565 89.6849 512.278 95.8047C527.122 101.794 539.948 110.518 550.755 121.977C561.692 133.305 570.091 146.911 575.95 162.797C581.94 178.682 584.935 196.391 584.935 215.922V241.898C584.935 261.43 581.94 279.138 575.95 295.023C570.091 310.909 561.692 324.516 550.755 335.844C539.817 347.172 526.862 355.896 511.888 362.016C496.914 368.005 480.247 371 461.888 371ZM408.177 86.625V371H384.153V86.625H408.177ZM706.435 374.906C692.632 374.906 679.937 372.367 668.349 367.289C656.89 362.211 646.864 355.049 638.271 345.805C629.807 336.56 623.231 325.622 618.544 312.992C613.987 300.232 611.708 286.299 611.708 271.195V262.797C611.708 246.521 614.117 231.807 618.935 218.656C623.752 205.505 630.393 194.242 638.856 184.867C647.32 175.492 656.955 168.331 667.763 163.383C678.7 158.305 690.159 155.766 702.138 155.766C715.549 155.766 727.463 158.174 737.88 162.992C748.297 167.68 757.021 174.385 764.052 183.109C771.213 191.703 776.617 201.924 780.263 213.773C783.909 225.492 785.731 238.448 785.731 252.641V266.898H625.771V246.977H762.489V244.242C762.229 232.393 759.82 221.326 755.263 211.039C750.836 200.622 744.195 192.159 735.341 185.648C726.487 179.138 715.419 175.883 702.138 175.883C692.242 175.883 683.127 177.966 674.794 182.133C666.591 186.299 659.494 192.289 653.505 200.102C647.646 207.784 643.088 216.964 639.833 227.641C636.708 238.188 635.146 249.906 635.146 262.797V271.195C635.146 282.914 636.838 293.852 640.224 304.008C643.739 314.034 648.687 322.888 655.067 330.57C661.578 338.253 669.26 344.242 678.114 348.539C686.968 352.836 696.734 354.984 707.411 354.984C719.911 354.984 730.979 352.706 740.614 348.148C750.25 343.461 758.909 336.104 766.591 326.078L781.239 337.406C776.682 344.177 770.953 350.427 764.052 356.156C757.281 361.885 749.143 366.443 739.638 369.828C730.132 373.214 719.065 374.906 706.435 374.906ZM875.396 348.539L943.169 159.672H967.192L888.091 371H871.099L875.396 348.539ZM814.067 159.672L882.622 349.125L886.333 371H869.146L789.849 159.672H814.067ZM1159.59 350.492V371H1012.13V350.492H1159.59ZM1019.16 86.625V371H995.138V86.625H1019.16ZM1313.12 333.109V224.125C1313.12 214.099 1311.04 205.44 1306.87 198.148C1302.71 190.857 1296.59 185.258 1288.51 181.352C1280.44 177.445 1270.48 175.492 1258.63 175.492C1247.69 175.492 1237.93 177.445 1229.33 181.352C1220.87 185.128 1214.16 190.271 1209.22 196.781C1204.4 203.161 1201.99 210.258 1201.99 218.07L1178.55 217.875C1178.55 209.932 1180.5 202.25 1184.41 194.828C1188.32 187.406 1193.85 180.766 1201.01 174.906C1208.17 169.047 1216.7 164.424 1226.6 161.039C1236.62 157.523 1247.63 155.766 1259.61 155.766C1274.71 155.766 1287.99 158.305 1299.45 163.383C1311.04 168.461 1320.09 176.078 1326.6 186.234C1333.11 196.391 1336.36 209.151 1336.36 224.516V326.664C1336.36 333.956 1336.89 341.508 1337.93 349.32C1339.1 357.133 1340.73 363.578 1342.81 368.656V371H1318C1316.44 366.312 1315.21 360.453 1314.29 353.422C1313.51 346.26 1313.12 339.49 1313.12 333.109ZM1318.59 247.953L1318.98 265.922H1273.08C1261.1 265.922 1250.36 267.029 1240.86 269.242C1231.48 271.326 1223.54 274.451 1217.03 278.617C1210.52 282.654 1205.5 287.536 1201.99 293.266C1198.6 298.995 1196.91 305.505 1196.91 312.797C1196.91 320.349 1198.8 327.25 1202.58 333.5C1206.48 339.75 1211.95 344.763 1218.98 348.539C1226.14 352.185 1234.61 354.008 1244.37 354.008C1257.39 354.008 1268.85 351.599 1278.75 346.781C1288.77 341.964 1297.04 335.648 1303.55 327.836C1310.06 320.023 1314.42 311.495 1316.64 302.25L1326.79 315.727C1325.1 322.237 1321.98 328.943 1317.42 335.844C1312.99 342.615 1307.2 348.995 1300.04 354.984C1292.87 360.844 1284.41 365.661 1274.65 369.438C1265.01 373.083 1254.07 374.906 1241.83 374.906C1228.03 374.906 1215.99 372.302 1205.7 367.094C1195.54 361.885 1187.6 354.789 1181.87 345.805C1176.27 336.69 1173.47 326.404 1173.47 314.945C1173.47 304.529 1175.69 295.219 1180.11 287.016C1184.54 278.682 1190.92 271.651 1199.25 265.922C1207.72 260.062 1217.87 255.635 1229.72 252.641C1241.7 249.516 1255.11 247.953 1269.96 247.953H1318.59ZM1442.63 349.906L1508.45 159.672H1533.65L1444.19 404.984C1442.37 409.802 1440.03 415.141 1437.16 421C1434.43 426.859 1430.78 432.458 1426.22 437.797C1421.8 443.266 1416.2 447.693 1409.43 451.078C1402.79 454.594 1394.65 456.352 1385.01 456.352C1382.54 456.352 1379.35 456.026 1375.44 455.375C1371.67 454.854 1368.93 454.333 1367.24 453.812L1367.04 434.086C1368.48 434.477 1370.56 434.802 1373.29 435.062C1376.03 435.323 1377.92 435.453 1378.96 435.453C1387.42 435.453 1394.52 434.021 1400.25 431.156C1406.11 428.292 1410.99 423.995 1414.9 418.266C1418.8 412.667 1422.25 405.635 1425.25 397.172L1442.63 349.906ZM1381.11 159.672L1448.49 341.117L1454.74 365.531L1437.75 375.102L1355.72 159.672H1381.11ZM1633.08 374.906C1619.27 374.906 1606.58 372.367 1594.99 367.289C1583.53 362.211 1573.5 355.049 1564.91 345.805C1556.45 336.56 1549.87 325.622 1545.18 312.992C1540.63 300.232 1538.35 286.299 1538.35 271.195V262.797C1538.35 246.521 1540.76 231.807 1545.58 218.656C1550.39 205.505 1557.03 194.242 1565.5 184.867C1573.96 175.492 1583.6 168.331 1594.4 163.383C1605.34 158.305 1616.8 155.766 1628.78 155.766C1642.19 155.766 1654.1 158.174 1664.52 162.992C1674.94 167.68 1683.66 174.385 1690.69 183.109C1697.85 191.703 1703.26 201.924 1706.9 213.773C1710.55 225.492 1712.37 238.448 1712.37 252.641V266.898H1552.41V246.977H1689.13V244.242C1688.87 232.393 1686.46 221.326 1681.9 211.039C1677.48 200.622 1670.84 192.159 1661.98 185.648C1653.13 179.138 1642.06 175.883 1628.78 175.883C1618.88 175.883 1609.77 177.966 1601.43 182.133C1593.23 186.299 1586.14 192.289 1580.15 200.102C1574.29 207.784 1569.73 216.964 1566.47 227.641C1563.35 238.188 1561.79 249.906 1561.79 262.797V271.195C1561.79 282.914 1563.48 293.852 1566.86 304.008C1570.38 314.034 1575.33 322.888 1581.71 330.57C1588.22 338.253 1595.9 344.242 1604.75 348.539C1613.61 352.836 1623.37 354.984 1634.05 354.984C1646.55 354.984 1657.62 352.706 1667.25 348.148C1676.89 343.461 1685.55 336.104 1693.23 326.078L1707.88 337.406C1703.32 344.177 1697.59 350.427 1690.69 356.156C1683.92 361.885 1675.78 366.443 1666.28 369.828C1656.77 373.214 1645.71 374.906 1633.08 374.906ZM1765.71 194.633V371H1742.47V159.672H1765.12L1765.71 194.633ZM1840.51 158.109L1839.93 179.594C1837.32 179.203 1834.78 178.878 1832.31 178.617C1829.84 178.357 1827.17 178.227 1824.3 178.227C1814.15 178.227 1805.23 180.115 1797.54 183.891C1789.99 187.536 1783.61 192.68 1778.4 199.32C1773.19 205.831 1769.22 213.513 1766.49 222.367C1763.75 231.091 1762.19 240.466 1761.8 250.492L1753.21 253.812C1753.21 240.01 1754.64 227.185 1757.5 215.336C1760.37 203.487 1764.73 193.135 1770.59 184.281C1776.58 175.297 1784.07 168.331 1793.05 163.383C1802.17 158.305 1812.84 155.766 1825.08 155.766C1828.08 155.766 1831.01 156.026 1833.87 156.547C1836.87 156.938 1839.08 157.458 1840.51 158.109ZM1987.79 317.094C1987.79 311.365 1986.36 305.701 1983.5 300.102C1980.63 294.503 1975.1 289.359 1966.9 284.672C1958.82 279.984 1946.91 276.013 1931.15 272.758C1919.43 270.154 1908.95 267.224 1899.71 263.969C1890.59 260.714 1882.91 256.807 1876.66 252.25C1870.41 247.693 1865.66 242.224 1862.4 235.844C1859.15 229.464 1857.52 221.911 1857.52 213.188C1857.52 205.375 1859.21 198.018 1862.6 191.117C1866.11 184.086 1871.06 177.966 1877.44 172.758C1883.95 167.419 1891.77 163.253 1900.88 160.258C1910.12 157.263 1920.48 155.766 1931.93 155.766C1948.21 155.766 1962.14 158.565 1973.73 164.164C1985.45 169.633 1994.37 177.12 2000.49 186.625C2006.74 196.13 2009.86 206.872 2009.86 218.852H1986.62C1986.62 211.56 1984.47 204.659 1980.18 198.148C1976.01 191.638 1969.83 186.299 1961.62 182.133C1953.55 177.966 1943.65 175.883 1931.93 175.883C1919.83 175.883 1909.99 177.706 1902.44 181.352C1894.89 184.997 1889.36 189.62 1885.84 195.219C1882.46 200.818 1880.76 206.612 1880.76 212.602C1880.76 217.289 1881.48 221.586 1882.91 225.492C1884.47 229.268 1887.21 232.784 1891.11 236.039C1895.15 239.294 1900.88 242.354 1908.3 245.219C1915.72 248.083 1925.36 250.883 1937.21 253.617C1954.27 257.393 1968.2 262.016 1979 267.484C1989.94 272.823 1998.02 279.464 2003.22 287.406C2008.43 295.219 2011.04 304.724 2011.04 315.922C2011.04 324.646 2009.21 332.654 2005.57 339.945C2001.92 347.107 1996.65 353.292 1989.75 358.5C1982.98 363.708 1974.77 367.745 1965.14 370.609C1955.63 373.474 1944.96 374.906 1933.11 374.906C1915.27 374.906 1900.16 371.977 1887.79 366.117C1875.55 360.128 1866.24 352.315 1859.86 342.68C1853.61 332.914 1850.49 322.562 1850.49 311.625H1873.73C1874.51 322.562 1877.96 331.221 1884.08 337.602C1890.2 343.852 1897.69 348.279 1906.54 350.883C1915.53 353.487 1924.38 354.789 1933.11 354.789C1945.09 354.789 1955.11 353.031 1963.18 349.516C1971.26 346 1977.38 341.378 1981.54 335.648C1985.71 329.919 1987.79 323.734 1987.79 317.094Z" fill="#004DFF"/>
</svg>
