<svg width="2132" height="468" viewBox="0 0 2132 468" fill="none" xmlns="http://www.w3.org/2000/svg">
<mask id="mask0_14_138" style="mask-type:luminance" maskUnits="userSpaceOnUse" x="0" y="59" width="333" height="332">
<path d="M0 59H332.933V390.995H0V59Z" fill="white"/>
</mask>
<g mask="url(#mask0_14_138)">
<path d="M319.824 161.166C311.436 141.24 299.43 123.355 284.146 107.998C268.861 92.6403 251.055 80.5771 231.229 72.1496C210.69 63.4235 188.884 59 166.41 59H0V320.255H72.9279V393.529H166.41C188.884 393.529 210.69 389.135 231.229 380.406C251.061 371.979 268.861 359.937 284.146 344.575C299.43 329.217 311.436 311.332 319.824 291.411C328.509 270.776 332.917 248.873 332.917 226.293C332.917 203.713 328.509 181.802 319.824 161.166ZM166.41 360.892H105.405V320.246H166.41C179.027 320.246 191.274 317.754 202.809 312.849C213.948 308.113 190.42 304.124 199 295.5C207.583 286.879 179.784 306.684 184.5 295.5C189.379 283.905 173.368 313.002 173.368 300.5H178.5C178.5 334.501 173.648 287.623 166.41 287.623C159.172 287.623 105.405 287.623 105.405 287.623V131.691L88.8222 120.845L72.9279 131.691V287.623H32.4749V91.6293H166.41C240.302 91.6293 300.415 152.021 300.415 226.258C300.415 300.501 240.302 360.892 166.41 360.892Z" fill="#004DFF"/>
</g>
<rect width="203.873" height="30.1871" rx="15.0936" transform="matrix(0.999995 -0.003097 0.00313291 0.999995 6.45996 286.279)" fill="#004DFF"/>
<rect width="203.071" height="31.9785" rx="15.9893" transform="matrix(0.0017594 0.999998 -0.999998 0.00173924 32.0762 65.0117)" fill="#004DFF"/>
<rect width="92.5208" height="34.5551" rx="17.2775" transform="matrix(-0.999975 0.00709641 -0.00717868 -0.999974 214.213 319.814)" fill="#004DFF"/>
<rect width="273.535" height="34.1106" rx="17.0553" transform="matrix(-0.00382001 0.999993 -0.999993 -0.00377623 107.192 110.658)" fill="#004DFF"/>
<path d="M104.874 247.538L104.61 391.022L72.245 390.963L72.5094 247.479L104.874 247.538Z" fill="#004DFF"/>
<path d="M457.961 371H398.586L398.977 340.336H457.961C478.273 340.336 495.201 336.104 508.742 327.641C522.284 319.047 532.44 307.068 539.211 291.703C546.112 276.208 549.562 258.109 549.562 237.406V220.023C549.562 203.747 547.609 189.294 543.703 176.664C539.797 163.904 534.068 153.161 526.516 144.438C518.964 135.583 509.719 128.878 498.781 124.32C487.974 119.763 475.539 117.484 461.477 117.484H397.414V86.625H461.477C480.096 86.625 497.089 89.75 512.453 96C527.818 102.12 541.034 111.039 552.102 122.758C563.299 134.346 571.893 148.409 577.883 164.945C583.872 181.352 586.867 199.841 586.867 220.414V237.406C586.867 257.979 583.872 276.534 577.883 293.07C571.893 309.477 563.234 323.474 551.906 335.062C540.708 346.651 527.167 355.57 511.281 361.82C495.526 367.94 477.753 371 457.961 371ZM418.703 86.625V371H381.008V86.625H418.703ZM709.734 374.906C695.021 374.906 681.674 372.432 669.695 367.484C657.846 362.406 647.625 355.31 639.031 346.195C630.568 337.081 624.057 326.273 619.5 313.773C614.943 301.273 612.664 287.602 612.664 272.758V264.555C612.664 247.367 615.203 232.068 620.281 218.656C625.359 205.115 632.26 193.656 640.984 184.281C649.708 174.906 659.604 167.81 670.672 162.992C681.74 158.174 693.198 155.766 705.047 155.766C720.151 155.766 733.172 158.37 744.109 163.578C755.177 168.786 764.227 176.078 771.258 185.453C778.289 194.698 783.497 205.635 786.883 218.266C790.268 230.766 791.961 244.438 791.961 259.281V275.492H634.148V246H755.828V243.266C755.307 233.891 753.354 224.776 749.969 215.922C746.714 207.068 741.505 199.776 734.344 194.047C727.182 188.318 717.417 185.453 705.047 185.453C696.844 185.453 689.292 187.211 682.391 190.727C675.49 194.112 669.565 199.19 664.617 205.961C659.669 212.732 655.828 221 653.094 230.766C650.359 240.531 648.992 251.794 648.992 264.555V272.758C648.992 282.784 650.359 292.224 653.094 301.078C655.958 309.802 660.06 317.484 665.398 324.125C670.867 330.766 677.443 335.974 685.125 339.75C692.938 343.526 701.792 345.414 711.688 345.414C724.448 345.414 735.255 342.81 744.109 337.602C752.964 332.393 760.711 325.427 767.352 316.703L789.227 334.086C784.669 340.987 778.875 347.562 771.844 353.812C764.812 360.062 756.154 365.141 745.867 369.047C735.711 372.953 723.667 374.906 709.734 374.906ZM879.672 338.383L937.484 159.672H974.398L898.422 371H874.203L879.672 338.383ZM831.43 159.672L891 339.359L895.102 371H870.883L794.32 159.672H831.43ZM1171.09 340.336V371H1028.91V340.336H1171.09ZM1036.33 86.625V371H998.633V86.625H1036.33ZM1317.4 334.867V226.078C1317.4 217.745 1315.71 210.518 1312.32 204.398C1309.07 198.148 1304.12 193.331 1297.48 189.945C1290.84 186.56 1282.63 184.867 1272.87 184.867C1263.75 184.867 1255.74 186.43 1248.84 189.555C1242.07 192.68 1236.73 196.781 1232.83 201.859C1229.05 206.938 1227.16 212.406 1227.16 218.266H1191.03C1191.03 210.714 1192.98 203.227 1196.89 195.805C1200.8 188.383 1206.4 181.677 1213.69 175.688C1221.11 169.568 1229.96 164.75 1240.25 161.234C1250.67 157.589 1262.26 155.766 1275.02 155.766C1290.38 155.766 1303.92 158.37 1315.64 163.578C1327.49 168.786 1336.73 176.664 1343.38 187.211C1350.15 197.628 1353.53 210.714 1353.53 226.469V324.906C1353.53 331.938 1354.12 339.424 1355.29 347.367C1356.59 355.31 1358.48 362.146 1360.95 367.875V371H1323.26C1321.43 366.833 1320 361.299 1318.96 354.398C1317.92 347.367 1317.4 340.857 1317.4 334.867ZM1323.65 242.875L1324.04 268.266H1287.52C1277.23 268.266 1268.05 269.112 1259.98 270.805C1251.9 272.367 1245.13 274.776 1239.66 278.031C1234.2 281.286 1230.03 285.388 1227.16 290.336C1224.3 295.154 1222.87 300.818 1222.87 307.328C1222.87 313.969 1224.36 320.023 1227.36 325.492C1230.35 330.961 1234.85 335.323 1240.84 338.578C1246.96 341.703 1254.44 343.266 1263.3 343.266C1274.36 343.266 1284.13 340.922 1292.59 336.234C1301.06 331.547 1307.76 325.818 1312.71 319.047C1317.79 312.276 1320.52 305.701 1320.91 299.32L1336.34 316.703C1335.43 322.172 1332.96 328.227 1328.92 334.867C1324.89 341.508 1319.48 347.888 1312.71 354.008C1306.07 359.997 1298.13 365.01 1288.88 369.047C1279.77 372.953 1269.48 374.906 1258.02 374.906C1243.7 374.906 1231.14 372.107 1220.33 366.508C1209.65 360.909 1201.32 353.422 1195.33 344.047C1189.47 334.542 1186.54 323.93 1186.54 312.211C1186.54 300.883 1188.75 290.922 1193.18 282.328C1197.61 273.604 1203.99 266.378 1212.32 260.648C1220.65 254.789 1230.68 250.362 1242.4 247.367C1254.12 244.372 1267.2 242.875 1281.66 242.875H1323.65ZM1450.62 349.125L1509.41 159.672H1548.08L1463.31 403.617C1461.36 408.826 1458.76 414.424 1455.5 420.414C1452.38 426.534 1448.34 432.328 1443.39 437.797C1438.44 443.266 1432.45 447.693 1425.42 451.078C1418.52 454.594 1410.25 456.352 1400.62 456.352C1397.75 456.352 1394.11 455.961 1389.68 455.18C1385.25 454.398 1382.13 453.747 1380.3 453.227L1380.11 423.93C1381.15 424.06 1382.78 424.19 1384.99 424.32C1387.34 424.581 1388.96 424.711 1389.88 424.711C1398.08 424.711 1405.04 423.604 1410.77 421.391C1416.5 419.307 1421.32 415.727 1425.23 410.648C1429.26 405.701 1432.71 398.865 1435.58 390.141L1450.62 349.125ZM1407.45 159.672L1462.34 323.734L1471.71 361.82L1445.73 375.102L1368 159.672H1407.45ZM1649.66 374.906C1634.94 374.906 1621.6 372.432 1609.62 367.484C1597.77 362.406 1587.55 355.31 1578.95 346.195C1570.49 337.081 1563.98 326.273 1559.42 313.773C1554.86 301.273 1552.59 287.602 1552.59 272.758V264.555C1552.59 247.367 1555.12 232.068 1560.2 218.656C1565.28 205.115 1572.18 193.656 1580.91 184.281C1589.63 174.906 1599.53 167.81 1610.59 162.992C1621.66 158.174 1633.12 155.766 1644.97 155.766C1660.07 155.766 1673.09 158.37 1684.03 163.578C1695.1 168.786 1704.15 176.078 1711.18 185.453C1718.21 194.698 1723.42 205.635 1726.8 218.266C1730.19 230.766 1731.88 244.438 1731.88 259.281V275.492H1574.07V246H1695.75V243.266C1695.23 233.891 1693.28 224.776 1689.89 215.922C1686.64 207.068 1681.43 199.776 1674.27 194.047C1667.1 188.318 1657.34 185.453 1644.97 185.453C1636.77 185.453 1629.21 187.211 1622.31 190.727C1615.41 194.112 1609.49 199.19 1604.54 205.961C1599.59 212.732 1595.75 221 1593.02 230.766C1590.28 240.531 1588.91 251.794 1588.91 264.555V272.758C1588.91 282.784 1590.28 292.224 1593.02 301.078C1595.88 309.802 1599.98 317.484 1605.32 324.125C1610.79 330.766 1617.36 335.974 1625.05 339.75C1632.86 343.526 1641.71 345.414 1651.61 345.414C1664.37 345.414 1675.18 342.81 1684.03 337.602C1692.89 332.393 1700.63 325.427 1707.27 316.703L1729.15 334.086C1724.59 340.987 1718.8 347.562 1711.77 353.812C1704.73 360.062 1696.08 365.141 1685.79 369.047C1675.63 372.953 1663.59 374.906 1649.66 374.906ZM1794.2 192.875V371H1758.07V159.672H1793.23L1794.2 192.875ZM1860.22 158.5L1860.02 192.094C1857.03 191.443 1854.16 191.052 1851.43 190.922C1848.83 190.661 1845.83 190.531 1842.45 190.531C1834.11 190.531 1826.76 191.833 1820.38 194.438C1813.99 197.042 1808.59 200.688 1804.16 205.375C1799.74 210.062 1796.22 215.661 1793.62 222.172C1791.14 228.552 1789.52 235.583 1788.73 243.266L1778.58 249.125C1778.58 236.365 1779.82 224.385 1782.29 213.188C1784.89 201.99 1788.86 192.094 1794.2 183.5C1799.54 174.776 1806.31 168.005 1814.52 163.188C1822.85 158.24 1832.74 155.766 1844.2 155.766C1846.81 155.766 1849.8 156.091 1853.19 156.742C1856.57 157.263 1858.92 157.849 1860.22 158.5ZM2000.66 314.945C2000.66 309.737 1999.49 304.919 1997.15 300.492C1994.93 295.935 1990.31 291.833 1983.28 288.188C1976.38 284.411 1965.96 281.156 1952.03 278.422C1940.31 275.948 1929.7 273.018 1920.2 269.633C1910.82 266.247 1902.81 262.146 1896.17 257.328C1889.66 252.51 1884.65 246.846 1881.13 240.336C1877.62 233.826 1875.86 226.208 1875.86 217.484C1875.86 209.151 1877.68 201.273 1881.33 193.852C1885.1 186.43 1890.38 179.854 1897.15 174.125C1904.05 168.396 1912.32 163.904 1921.95 160.648C1931.59 157.393 1942.33 155.766 1954.18 155.766C1971.11 155.766 1985.56 158.76 1997.54 164.75C2009.52 170.74 2018.7 178.747 2025.08 188.773C2031.46 198.669 2034.65 209.672 2034.65 221.781H1998.52C1998.52 215.922 1996.76 210.258 1993.24 204.789C1989.86 199.19 1984.84 194.568 1978.2 190.922C1971.69 187.276 1963.68 185.453 1954.18 185.453C1944.15 185.453 1936.02 187.016 1929.77 190.141C1923.65 193.135 1919.15 196.977 1916.29 201.664C1913.55 206.352 1912.19 211.299 1912.19 216.508C1912.19 220.414 1912.84 223.93 1914.14 227.055C1915.57 230.049 1918.05 232.849 1921.56 235.453C1925.08 237.927 1930.03 240.271 1936.41 242.484C1942.79 244.698 1950.92 246.911 1960.82 249.125C1978.14 253.031 1992.4 257.719 2003.59 263.188C2014.79 268.656 2023.12 275.362 2028.59 283.305C2034.06 291.247 2036.8 300.883 2036.8 312.211C2036.8 321.456 2034.84 329.919 2030.94 337.602C2027.16 345.284 2021.63 351.924 2014.34 357.523C2007.17 362.992 1998.58 367.289 1988.55 370.414C1978.66 373.409 1967.53 374.906 1955.16 374.906C1936.54 374.906 1920.78 371.586 1907.89 364.945C1895 358.305 1885.23 349.711 1878.59 339.164C1871.95 328.617 1868.63 317.484 1868.63 305.766H1904.96C1905.48 315.661 1908.35 323.539 1913.55 329.398C1918.76 335.128 1925.14 339.229 1932.7 341.703C1940.25 344.047 1947.73 345.219 1955.16 345.219C1965.05 345.219 1973.32 343.917 1979.96 341.312C1986.73 338.708 1991.88 335.128 1995.39 330.57C1998.91 326.013 2000.66 320.805 2000.66 314.945Z" fill="#004DFF"/>
</svg>
